<svg width="24" height="24" viewBox="0 0 24 24" fill="none" xmlns="http://www.w3.org/2000/svg">
<path d="M2.40009 10.7994C3.06481 9.90868 3.95143 9.2078 4.97153 8.76664C4.41309 8.25676 4.02185 7.58997 3.84914 6.85376C3.67644 6.11755 3.73035 5.34633 4.00379 4.6413C4.27723 3.93628 4.75743 3.3304 5.38137 2.90316C6.00531 2.47593 6.74384 2.24731 7.50003 2.24731C8.25623 2.24731 8.99476 2.47593 9.6187 2.90316C10.2426 3.3304 10.7228 3.93628 10.9963 4.6413C11.2697 5.34633 11.3236 6.11755 11.1509 6.85376C10.9782 7.58997 10.587 8.25676 10.0285 8.76664C10.765 9.08427 11.4341 9.53938 12 10.1076C12.566 9.53935 13.2351 9.08424 13.9715 8.76664C13.4131 8.25676 13.0218 7.58997 12.8491 6.85376C12.6764 6.11755 12.7303 5.34633 13.0038 4.6413C13.2772 3.93628 13.7574 3.3304 14.3814 2.90316C15.0053 2.47593 15.7438 2.24731 16.5 2.24731C17.2562 2.24731 17.9948 2.47593 18.6187 2.90316C19.2426 3.3304 19.7228 3.93628 19.9963 4.6413C20.2697 5.34633 20.3236 6.11755 20.1509 6.85376C19.9782 7.58997 19.587 8.25676 19.0285 8.76664C20.0485 9.20777 20.9351 9.90859 21.5998 10.7992C21.6591 10.8779 21.7023 10.9676 21.7269 11.063C21.7515 11.1585 21.757 11.2578 21.7432 11.3554C21.7294 11.453 21.6965 11.5469 21.6464 11.6317C21.5962 11.7166 21.5299 11.7908 21.4511 11.8499C21.3723 11.9091 21.2826 11.9522 21.1871 11.9767C21.0917 12.0012 20.9923 12.0067 20.8947 11.9928C20.7972 11.9788 20.7033 11.9458 20.6185 11.8956C20.5337 11.8454 20.4596 11.7789 20.4005 11.7001C19.9463 11.0946 19.3574 10.6031 18.6804 10.2647C18.0034 9.9262 17.2568 9.74999 16.4999 9.75001C15.743 9.75003 14.9965 9.92627 14.3195 10.2648C13.6425 10.6033 13.0536 11.0947 12.5994 11.7003C12.5982 11.7019 12.5967 11.7033 12.5955 11.7049C12.5803 11.7247 12.5642 11.7437 12.5471 11.7619C12.5415 11.7679 12.5358 11.7736 12.53 11.7793C12.5168 11.7925 12.5031 11.8051 12.4889 11.8174C12.4806 11.8246 12.4723 11.8316 12.4637 11.8384C12.4593 11.8419 12.4552 11.8459 12.4507 11.8493C12.4421 11.8557 12.4331 11.8611 12.4243 11.8671C12.4148 11.8736 12.4054 11.8803 12.3956 11.8864C12.3803 11.896 12.3646 11.9045 12.3488 11.9128C12.3409 11.9169 12.3333 11.9215 12.3253 11.9254C12.2768 11.9487 12.2259 11.9668 12.1734 11.9791C12.1659 11.9809 12.1582 11.9821 12.1506 11.9836C12.1324 11.9874 12.1141 11.9907 12.0957 11.993C12.0854 11.9944 12.075 11.9952 12.0647 11.9961C12.0492 11.9974 12.0337 11.9984 12.0182 11.9987C12.0118 11.9989 12.0055 11.9998 11.9992 11.9998C11.9949 11.9998 11.9907 11.9989 11.9864 11.9988C11.9541 11.9984 11.9218 11.9958 11.8898 11.9912C11.881 11.9899 11.8723 11.9878 11.8635 11.9862C11.8371 11.9813 11.8109 11.975 11.7851 11.9673C11.7762 11.9646 11.7673 11.9625 11.7585 11.9595C11.7277 11.9489 11.6976 11.9362 11.6685 11.9217C11.6597 11.9173 11.6511 11.9129 11.6424 11.9082C11.6122 11.8919 11.5831 11.8736 11.5554 11.8533C11.5534 11.8519 11.5512 11.851 11.5493 11.8495C11.5384 11.8413 11.5285 11.8322 11.5182 11.8236C11.5122 11.8185 11.506 11.8138 11.5001 11.8085C11.4846 11.7946 11.47 11.78 11.4558 11.7651C11.4533 11.7625 11.4507 11.76 11.4482 11.7574C11.4277 11.7354 11.4086 11.7123 11.3908 11.688C10.9356 11.0849 10.3464 10.5959 9.66982 10.2596C8.9932 9.92328 8.24767 9.74883 7.49208 9.75001C6.73648 9.7512 5.99151 9.92801 5.31595 10.2665C4.6404 10.6049 4.05277 11.0958 3.59943 11.7003C3.47997 11.8593 3.30222 11.9644 3.10528 11.9924C2.90835 12.0204 2.70836 11.969 2.54932 11.8495C2.39028 11.73 2.28521 11.5523 2.25722 11.3553C2.22923 11.1584 2.28062 10.9584 2.40009 10.7994L2.40009 10.7994ZM19.0285 18.5166C19.587 18.0068 19.9782 17.34 20.1509 16.6038C20.3236 15.8676 20.2697 15.0963 19.9963 14.3913C19.7228 13.6863 19.2426 13.0804 18.6187 12.6532C17.9948 12.2259 17.2562 11.9973 16.5 11.9973C15.7438 11.9973 15.0053 12.2259 14.3814 12.6532C13.7574 13.0804 13.2772 13.6863 13.0038 14.3913C12.7303 15.0963 12.6764 15.8676 12.8491 16.6038C13.0218 17.34 13.4131 18.0068 13.9715 18.5166C13.2351 18.8342 12.566 19.2894 12 19.8576C11.4341 19.2894 10.765 18.8343 10.0285 18.5166C10.587 18.0068 10.9782 17.34 11.1509 16.6038C11.3236 15.8676 11.2697 15.0963 10.9963 14.3913C10.7228 13.6863 10.2426 13.0804 9.6187 12.6532C8.99476 12.2259 8.25623 11.9973 7.50003 11.9973C6.74384 11.9973 6.00531 12.2259 5.38137 12.6532C4.75743 13.0804 4.27723 13.6863 4.00379 14.3913C3.73035 15.0963 3.67644 15.8676 3.84914 16.6038C4.02185 17.34 4.41309 18.0068 4.97153 18.5166C3.95143 18.9578 3.06481 19.6587 2.40009 20.5494C2.31641 20.6608 2.26542 20.7933 2.25283 20.9321C2.24024 21.0708 2.26655 21.2103 2.32882 21.335C2.39108 21.4596 2.48684 21.5645 2.60534 21.6377C2.72385 21.711 2.86043 21.7498 2.99976 21.7498L11.9972 21.7496L11.9998 21.7498L21.0002 21.7496C21.1395 21.7496 21.2761 21.7108 21.3946 21.6376C21.5131 21.5643 21.6089 21.4595 21.6711 21.3348C21.7334 21.2102 21.7597 21.0706 21.7471 20.9319C21.7345 20.7931 21.6835 20.6606 21.5998 20.5492C20.9351 19.6586 20.0485 18.9578 19.0285 18.5166Z" fill="#01645A"/>
</svg>
